<svg xmlns="http://www.w3.org/2000/svg" width="535" height="105"><path d="M268.744 16.697c-1.803-.014-3.744 1.204-3.744 2.768 0 .933.984 2.223 2.188 2.867 1.95 1.044 27.35 3.069 54.44 4.342 11.565.543 13.245 1.652 10.643 7.023-1.363 2.816-4.717 5.324-12.72 9.512-6.294 3.293-11.726 4.972-13.051 4.996-2.718.048-5.686.042-16.24 4.113l-7.024 2.71c-2.074-2.949-18.435-7.818-18.53-8.637.37-7.665-1.583-15.43-17.69-18.907-10.766-2.323-34.54 1.275-47.016 9.006-3.094 1.917-7.922 6.091-10.729 9.276l-5.103 5.789-3.082-2.965c-14.131-13.594-39.824-31.842-43.076-30.594-3.428 1.316-1.595 3.93 5.674 8.092 4.047 2.317 11.203 7.254 15.9 10.97 4.697 3.717 9.947 7.668 11.666 8.78 1.719 1.112 4.953 4.25 7.188 6.976 3.362 4.102 3.648 2.895 3.41 6.135-.265 3.625 1.237 16.66 3.583 20.606 0 0-3.588 2.579-6.715 3.963C162.331 90.772 147.173 93.504 123.7 95c-23.882 0-38.493-6.103-44.892-18.75-4.94-9.765-4.11-25.058 1.96-36.127 1.66-3.026 2.692-5.832 2.292-6.232-2.176-1.394-5.42 5.903-6.83 8.129C74.33 45.048 72.5 50.689 72.5 62.44c0 11.22.26 12.479 3.69 17.887 4.066 6.413 11.667 12.52 18.31 14.713 2.367.781 8.09 1.862 12.715 2.4 19.503 2.273 45.97.869 60.285-3.197 7.072-2.008 21.63-7.208 24.186-8.726 2.54 1.189 1.682.582 8.474 1.677 16.044 2.587 33.079 1.273 42.65-1.524 6.79-1.985 7.77-2.897 9.932-3.548 7.338-1.375 20.278-5.134 25.2-7.297 1.988-.873 10.025-4.896 11.769-7.422 2.746-3.979.7-5.684-2.352-9.51 4.428-2.825 12.138-4.358 17.37-5.638 0 0-4.394 2.555-8.577 8.476-5.807 6.41-8.069 13.951-3.996 19.274 9.616 11.88 23.272 13.822 72.375 10.855 85.16-5.145 96.48-5.372 128.3-2.564 7.351.649 8.355.49 7.7-1.215-.443-1.155-3.148-2.371-6.58-2.959-10.583-1.812-100.359-1.157-120.201.877-19.569 2.006-53.305 3.067-60.89 1.458-4.956-1.05-9.771-3.311-8.898-3.565 1.205-.35 11.289-2.72 13.727-4.172l5.965-3.55c1.06-.63.194 2.877.627 4.237.987 3.1 2.816 3.092 3.782 3.092 1.972 0 11.13-13.408 12.617-15.1.89-1.013.414 1.178 3.078 2.604 3.261 1.745 10.543 1.52 19.55-.604 16.712-4.168 37.65-11.914 51.84-21.875 5.865-4.385 5.614-13.771-.51-19.093-5.057-4.397-10.798-5.935-21.978-5.887-13.888.06-37.7 6.265-54.238 11.326 0 0 .328-.708.328-3.754 0-6.273-4.323-7.579-29.766-8.982-24.306-1.34-36.34-2.583-38.558-3.98-.494-.312-1.08-.453-1.682-.458zm123.9 9.772a47.625 47.625 0 0 1 3.237.086c7.392.462 9.816 1.18 13.527 4.011 2.487 1.897 4.355 2.906 5.2 5.213 2.504 8.43-17.078 16.635-23.81 19.207-6.784 2.437-23.628 8.686-30.173 10.047-2.75.572-7.361.726-10.248.342-5.05-.671-5.223-.838-4.508-4.412.628-3.139.385-3.647-1.566-3.272-2.083.401-8.644 7.87-11.68 13.295-.652 1.165-1.599 1.704-2.105 1.198-.507-.507.638-3.787 2.545-7.29 2.59-4.76 3.105-6.726 2.04-7.79-2.161-2.162-5.12.285-9.626 7.96-3.447 5.87-4.816 7.025-11.262 9.495-8.755 3.354-12.1 3.544-12.1 3.544.034-1.834 5.08-10.708 7.723-14.57 2.47-3.61 4.764-6.553 6.252-9.469 2.107-4.13 4.285-6.095 9.869-8.904 21.314-10.72 49.712-18.593 66.686-18.691zm-153.068 4.845c8.247.173 13.191 1.573 16.668 4.498 3.777 3.179 3.134 9.468 3.134 9.468-3.978-.874-20.597-4.31-22.386-3.624-1.096.42-1.992 1.503-1.992 2.405 0 1.087 3.464 2.181 10.303 3.257 5.667.892 12.53 2.442 12.758 2.734-1.992 3.703-8.843 8.418-17.58 10.954-7.266 2.109-7.62 2-9.231-2.881-1.486-4.504-4.527-5.814-5.799-2.5-1.04 2.709-2.951 2.304-2.951-.625 0-3.902-4.148-3.044-6.049 1.25-2.239 5.058-5.403 5.072-4.392.02.569-2.845.228-3.93-1.436-4.569-1.41-.54-2.608-.077-3.383 1.307-.66 1.179-2.898 4.076-4.974 6.441-2.077 2.365-5.372 4.301-5.946 4.301-.575 0-.093-2.11-.306-4.688-.296-3.566-1.69-5.928-2.577-4.513-1.438 2.293-2.764 4.863-3.328 4.234l-1.705-1.897c-1.137-1.267 1.524-4.532 7.192-11.148 2.199-2.567 8.718-6.424 14.062-8.963 8.194-3.893 11.406-4.714 20.502-5.236 3.55-.204 6.667-.282 9.416-.225zm24.32 20.026c5.102 1.515 9.432 3.676 13.65 6.933-8.474 5.049-15.25 11.304-26.638 18.291-.527.323-8.452 4.05-13.853 5.163-10.315 2.124-21.265 2.39-30.965.752-8.767-1.482-11.66-3.867-11.66-3.867 2.29-2.846 1.647-8.912 1.647-8.912 9.82-2.74 9.715-9.552 9.82-2.74.034 2.27 4.436 3.235 6.837.835 6.46-6.456 5.286-4.303 5.276-.285-.006 2.517 4.52 1.937 6.246-.696 4.282-6.532 2.586-3.19 4.664-.474 2.652 3.465 13.53-.47 19.603-2.822 3.278-1.27 10.47-4.87 15.126-11.667zm38.852 14.204a107.264 107.264 0 0 0-2.64 4.803c-2.684 5.265-4.016 6.216-4.016 6.216-.946.202-1.827-4.503-.74-6.294 2.572-4.241 10.022-14.135 14.502-18.068 0 0 1.439-.373 2.297-.903.13-.08-8.378 12.49-9.403 14.246zm-21.56-4.632s4.048 3.199 2.61 4.37c-2.313 1.885-3.671 2.683-7.294 4.685-8.082 4.465-17.038 5.69-17.038 5.69 1.944-1.537 19.592-11.805 21.722-14.745zm-91.553 4.763c.655.65.72 7.252.017 10.572-.413 1.954-3.328-12.538-2.269-13.379 0 0 1.377 1.937 2.252 2.807z"/></svg>